<!-- © Cloudflare, Inc. 2017 -->
<svg xmlns="http://www.w3.org/2000/svg" viewBox="430 20 360 280">
  <title>Cloudflare logo cloud portion</title>
  <path d="M674.8 224c2-7.3 1.3-14-2.2-18.8-3.2-4.5-8.6-7-15-7.4l-123.2-1.6c-.8 0-1.5-.4-2-1-.3-.6-.4-1.4-.2-2.2.4-1.2 1.6-2 3-2.2l124-1.6c14.8-.7 30.8-12.6 36.4-27.2l7-18.5c.4-.8.5-1.6.3-2.4-8-36-40.4-63-79-63-35.6 0-65.8 23-76.6 54.8-7-5.2-16-8-25.5-7-17.2 1.6-31 15.3-32.6 32.4-.4 4.4 0 8.7 1 12.7-28 .7-50.3 23.5-50.3 51.6 0 2.5.3 5 .6 7.5.2 1.3 1.2 2.2 2.4 2.2h227.2c1.3 0 2.5-1 3-2.2l1.6-6zM714 144.8h-3.4c-.8 0-1.5.7-1.8 1.5L704 163c-2 7.2-1.3 13.8 2.2 18.7 3.2 4.5 8.6 7 15 7.4l26.3 1.7c.8 0 1.5.4 2 1 .3.6.4 1.5.2 2.2-.4 1-1.6 2-3 2l-27.2 1.7c-14.8.7-30.7 12.6-36.3 27.2l-2 5c-.4 1 .3 2 1.4 2h93.8c1 0 2-.7 2.4-1.8 1.6-5.8 2.5-12 2.5-18.2 0-37-30.2-67.2-67.3-67.2"/>
</svg>
